<svg width="109" height="109" viewBox="0 0 109 109" fill="none" xmlns="http://www.w3.org/2000/svg">
<circle cx="54.5" cy="54.5" r="53.5" fill="white" stroke="#00328E" stroke-width="2"/>
<path d="M62.2598 30.5L50.1621 60.5H46.7295L58.3418 30.5H62.2598Z" fill="#00328E" stroke="#00328E"/>
<path d="M64.7295 30.5L76.3418 60.5H80.2705L68.6582 30.5H64.7295Z" fill="#00328E" stroke="#00328E"/>
<path d="M61.9609 44.5029L55.6602 60.5H52.2373L60.2617 40.3369L61.9609 44.5029Z" fill="#00328E" stroke="#00328E"/>
<path d="M66.1396 55.0003L59.8608 55.0007L59.1946 57.0004L66.8068 57.0008L66.1396 55.0003Z" fill="#00328E" stroke="#00328E"/>
<path d="M64.6404 51.001L61.3608 51.0007L60.6945 53.0004L65.306 52.9999L64.6404 51.001Z" fill="#00328E" stroke="#00328E"/>
<path d="M58.7295 30.5L70.3418 60.5H74.2705L62.6582 30.5H58.7295Z" fill="#00328E" stroke="#00328E"/>
<path d="M87.5 30.5V60.5H83.5V30.5H87.5Z" fill="#00328E" stroke="#00328E"/>
<path d="M93.5 30.5V60.5H89.5V30.5H93.5Z" fill="#00328E" stroke="#00328E"/>
<path d="M39.1064 30.5L20.7197 60.5H16.8936L35.2803 30.5H39.1064Z" fill="#00328E" stroke="#00328E"/>
<path d="M45.1064 30.5L26.7197 60.5H22.8936L41.2803 30.5H45.1064Z" fill="#00328E" stroke="#00328E"/>
<path d="M14.9424 30.5L35.2656 60.5H39.0576L18.7344 30.5H14.9424Z" fill="#00328E" stroke="#00328E"/>
<path d="M20.9424 30.5L41.2656 60.5H45.0576L24.7344 30.5H20.9424Z" fill="#00328E" stroke="#00328E"/>
<path d="M13.2917 73L16.6277 64.36H17.4917L14.2397 73H13.2917ZM20.1557 73L16.9037 64.36H17.8277L21.1637 73H20.1557ZM14.9477 69.508H19.4597V70.372H14.9477V69.508ZM26.4575 73V71.572L26.5775 71.608C26.4255 72.072 26.1455 72.44 25.7375 72.712C25.3375 72.984 24.8575 73.12 24.2975 73.12C23.7455 73.12 23.2615 72.988 22.8455 72.724C22.4375 72.46 22.1175 72.092 21.8855 71.62C21.6615 71.148 21.5495 70.596 21.5495 69.964C21.5495 69.324 21.6655 68.764 21.8975 68.284C22.1295 67.804 22.4535 67.432 22.8695 67.168C23.2855 66.904 23.7735 66.772 24.3335 66.772C24.9095 66.772 25.3935 66.912 25.7855 67.192C26.1775 67.472 26.4455 67.868 26.5895 68.38L26.3975 68.404V64.36H27.3575V73H26.4575ZM24.4775 72.28C25.0935 72.28 25.5735 72.072 25.9175 71.656C26.2695 71.232 26.4455 70.656 26.4455 69.928C26.4455 69.216 26.2695 68.652 25.9175 68.236C25.5655 67.82 25.0855 67.612 24.4775 67.612C23.8695 67.612 23.3935 67.82 23.0495 68.236C22.7055 68.652 22.5335 69.228 22.5335 69.964C22.5335 70.684 22.7055 71.252 23.0495 71.668C23.3935 72.076 23.8695 72.28 24.4775 72.28ZM29.0428 73V66.88H29.9428V68.32H30.0028V73H29.0428ZM33.1708 73V68.944C33.1708 68.48 33.0668 68.14 32.8588 67.924C32.6508 67.708 32.3508 67.6 31.9588 67.6C31.5908 67.6 31.2588 67.688 30.9628 67.864C30.6668 68.04 30.4308 68.284 30.2548 68.596C30.0868 68.908 30.0028 69.272 30.0028 69.688L29.8468 68.236C30.0548 67.78 30.3668 67.42 30.7828 67.156C31.1988 66.892 31.6508 66.76 32.1388 66.76C32.7308 66.76 33.2108 66.936 33.5788 67.288C33.9468 67.632 34.1308 68.1 34.1308 68.692V73H33.1708ZM37.2988 73V68.944C37.2988 68.48 37.1948 68.14 36.9868 67.924C36.7788 67.708 36.4788 67.6 36.0868 67.6C35.7188 67.6 35.3868 67.688 35.0908 67.864C34.7948 68.04 34.5588 68.284 34.3828 68.596C34.2148 68.908 34.1308 69.272 34.1308 69.688L33.8908 68.236C34.0988 67.78 34.4188 67.42 34.8508 67.156C35.2828 66.892 35.7468 66.76 36.2428 66.76C36.8348 66.76 37.3188 66.936 37.6948 67.288C38.0708 67.632 38.2588 68.1 38.2588 68.692V73H37.2988ZM39.8653 73V66.88H40.8253V73H39.8653ZM39.7933 65.488V64.36H40.8973V65.488H39.7933ZM42.5081 73V66.88H43.4081V68.32H43.4681V73H42.5081ZM46.8881 73V68.992C46.8881 68.528 46.7721 68.18 46.5401 67.948C46.3081 67.716 45.9641 67.6 45.5081 67.6C45.1081 67.6 44.7521 67.688 44.4401 67.864C44.1361 68.04 43.8961 68.284 43.7201 68.596C43.5521 68.908 43.4681 69.272 43.4681 69.688L43.3121 68.236C43.5201 67.78 43.8361 67.42 44.2601 67.156C44.6921 66.892 45.1801 66.76 45.7241 66.76C46.3641 66.76 46.8761 66.944 47.2601 67.312C47.6521 67.672 47.8481 68.148 47.8481 68.74V73H46.8881ZM49.4517 73V66.88H50.4117V73H49.4517ZM49.3797 65.488V64.36H50.4837V65.488H49.3797ZM54.1705 73.12C53.4185 73.12 52.8185 72.948 52.3705 72.604C51.9225 72.252 51.6665 71.756 51.6025 71.116H52.5265C52.5825 71.508 52.7545 71.808 53.0425 72.016C53.3305 72.224 53.7145 72.328 54.1945 72.328C54.6185 72.328 54.9505 72.248 55.1905 72.088C55.4305 71.928 55.5505 71.7 55.5505 71.404C55.5505 71.196 55.4825 71.016 55.3465 70.864C55.2105 70.704 54.9385 70.572 54.5305 70.468L53.5465 70.216C52.9865 70.072 52.5665 69.852 52.2865 69.556C52.0065 69.252 51.8665 68.892 51.8665 68.476C51.8665 67.948 52.0625 67.532 52.4545 67.228C52.8465 66.916 53.3785 66.76 54.0505 66.76C54.7145 66.76 55.2545 66.92 55.6705 67.24C56.0865 67.56 56.3225 68.004 56.3785 68.572H55.4545C55.3985 68.244 55.2465 67.992 54.9985 67.816C54.7505 67.64 54.4225 67.552 54.0145 67.552C53.6225 67.552 53.3185 67.628 53.1025 67.78C52.8865 67.924 52.7785 68.132 52.7785 68.404C52.7785 68.612 52.8545 68.792 53.0065 68.944C53.1665 69.096 53.4305 69.224 53.7985 69.328L54.7585 69.592C55.3265 69.744 55.7545 69.976 56.0425 70.288C56.3305 70.6 56.4745 70.976 56.4745 71.416C56.4745 71.952 56.2705 72.372 55.8625 72.676C55.4545 72.972 54.8905 73.12 54.1705 73.12ZM59.9744 73.108C59.2944 73.108 58.7984 72.956 58.4864 72.652C58.1824 72.34 58.0304 71.892 58.0304 71.308V65.452L58.9904 65.092V71.296C58.9904 71.64 59.0784 71.892 59.2544 72.052C59.4304 72.212 59.7184 72.292 60.1184 72.292C60.2784 72.292 60.4144 72.284 60.5264 72.268C60.6464 72.244 60.7424 72.216 60.8144 72.184V73C60.7344 73.032 60.6184 73.056 60.4664 73.072C60.3224 73.096 60.1584 73.108 59.9744 73.108ZM56.7704 67.696V66.88H60.8144V67.696H56.7704ZM61.8098 73V66.88H62.7098V68.44H62.7698V73H61.8098ZM62.7698 69.808L62.6138 68.356C62.7578 67.836 63.0138 67.44 63.3818 67.168C63.7498 66.896 64.1738 66.76 64.6538 66.76C64.8538 66.76 64.9898 66.776 65.0618 66.808V67.732C65.0218 67.716 64.9658 67.708 64.8938 67.708C64.8218 67.7 64.7338 67.696 64.6298 67.696C64.0218 67.696 63.5578 67.88 63.2378 68.248C62.9258 68.608 62.7698 69.128 62.7698 69.808ZM69.6501 73C69.6181 72.864 69.5941 72.708 69.5781 72.532C69.5701 72.356 69.5661 72.132 69.5661 71.86H69.5061V68.932C69.5061 68.468 69.3981 68.128 69.1821 67.912C68.9741 67.688 68.6341 67.576 68.1621 67.576C67.6981 67.576 67.3261 67.672 67.0461 67.864C66.7741 68.048 66.6221 68.312 66.5901 68.656H65.6661C65.7061 68.064 65.9541 67.6 66.4101 67.264C66.8661 66.928 67.4621 66.76 68.1981 66.76C68.9581 66.76 69.5221 66.94 69.8901 67.3C70.2581 67.66 70.4421 68.2 70.4421 68.92V71.86C70.4421 72.036 70.4541 72.22 70.4781 72.412C70.5021 72.596 70.5341 72.792 70.5741 73H69.6501ZM67.5501 73.12C66.9181 73.12 66.4141 72.968 66.0381 72.664C65.6701 72.352 65.4861 71.928 65.4861 71.392C65.4861 70.856 65.6701 70.44 66.0381 70.144C66.4061 69.848 66.9421 69.64 67.6461 69.52L69.7821 69.16V69.952L67.7901 70.264C67.3421 70.336 67.0021 70.456 66.7701 70.624C66.5381 70.792 66.4221 71.036 66.4221 71.356C66.4221 71.668 66.5261 71.904 66.7341 72.064C66.9501 72.224 67.2661 72.304 67.6821 72.304C68.2181 72.304 68.6541 72.184 68.9901 71.944C69.3341 71.696 69.5061 71.376 69.5061 70.984L69.6621 71.836C69.5341 72.244 69.2821 72.56 68.9061 72.784C68.5381 73.008 68.0861 73.12 67.5501 73.12ZM76.5045 73V71.572L76.6245 71.608C76.4725 72.072 76.1925 72.44 75.7845 72.712C75.3845 72.984 74.9045 73.12 74.3445 73.12C73.7925 73.12 73.3085 72.988 72.8925 72.724C72.4845 72.46 72.1645 72.092 71.9325 71.62C71.7085 71.148 71.5965 70.596 71.5965 69.964C71.5965 69.324 71.7125 68.764 71.9445 68.284C72.1765 67.804 72.5005 67.432 72.9165 67.168C73.3325 66.904 73.8205 66.772 74.3805 66.772C74.9565 66.772 75.4405 66.912 75.8325 67.192C76.2245 67.472 76.4925 67.868 76.6365 68.38L76.4445 68.404V64.36H77.4045V73H76.5045ZM74.5245 72.28C75.1405 72.28 75.6205 72.072 75.9645 71.656C76.3165 71.232 76.4925 70.656 76.4925 69.928C76.4925 69.216 76.3165 68.652 75.9645 68.236C75.6125 67.82 75.1325 67.612 74.5245 67.612C73.9165 67.612 73.4405 67.82 73.0965 68.236C72.7525 68.652 72.5805 69.228 72.5805 69.964C72.5805 70.684 72.7525 71.252 73.0965 71.668C73.4405 72.076 73.9165 72.28 74.5245 72.28ZM81.6338 73.12C81.0338 73.12 80.5058 72.98 80.0498 72.7C79.5938 72.42 79.2378 72.04 78.9818 71.56C78.7338 71.072 78.6098 70.524 78.6098 69.916C78.6098 69.3 78.7378 68.756 78.9938 68.284C79.2498 67.812 79.6018 67.44 80.0498 67.168C80.5058 66.896 81.0338 66.76 81.6338 66.76C82.2418 66.76 82.7698 66.896 83.2178 67.168C83.6738 67.44 84.0258 67.812 84.2738 68.284C84.5298 68.756 84.6578 69.3 84.6578 69.916C84.6578 70.524 84.5298 71.072 84.2738 71.56C84.0258 72.04 83.6738 72.42 83.2178 72.7C82.7698 72.98 82.2418 73.12 81.6338 73.12ZM81.6338 72.304C82.0498 72.304 82.4098 72.204 82.7138 72.004C83.0178 71.796 83.2538 71.512 83.4218 71.152C83.5898 70.792 83.6738 70.376 83.6738 69.904C83.6738 69.2 83.4858 68.636 83.1098 68.212C82.7418 67.788 82.2498 67.576 81.6338 67.576C81.0258 67.576 80.5338 67.788 80.1578 68.212C79.7818 68.636 79.5938 69.2 79.5938 69.904C79.5938 70.376 79.6778 70.792 79.8458 71.152C80.0138 71.512 80.2498 71.796 80.5538 72.004C80.8658 72.204 81.2258 72.304 81.6338 72.304ZM85.8577 73V66.88H86.7577V68.44H86.8177V73H85.8577ZM86.8177 69.808L86.6617 68.356C86.8057 67.836 87.0617 67.44 87.4297 67.168C87.7977 66.896 88.2217 66.76 88.7017 66.76C88.9017 66.76 89.0377 66.776 89.1097 66.808V67.732C89.0697 67.716 89.0137 67.708 88.9417 67.708C88.8697 67.7 88.7817 67.696 88.6777 67.696C88.0697 67.696 87.6057 67.88 87.2857 68.248C86.9737 68.608 86.8177 69.128 86.8177 69.808ZM93.6979 73C93.6659 72.864 93.6419 72.708 93.6259 72.532C93.6179 72.356 93.6139 72.132 93.6139 71.86H93.5539V68.932C93.5539 68.468 93.4459 68.128 93.2299 67.912C93.0219 67.688 92.6819 67.576 92.2099 67.576C91.7459 67.576 91.3739 67.672 91.0939 67.864C90.8219 68.048 90.6699 68.312 90.6379 68.656H89.7139C89.7539 68.064 90.0019 67.6 90.4579 67.264C90.9139 66.928 91.5099 66.76 92.2459 66.76C93.0059 66.76 93.5699 66.94 93.9379 67.3C94.3059 67.66 94.4899 68.2 94.4899 68.92V71.86C94.4899 72.036 94.5019 72.22 94.5259 72.412C94.5499 72.596 94.5819 72.792 94.6219 73H93.6979ZM91.5979 73.12C90.9659 73.12 90.4619 72.968 90.0859 72.664C89.7179 72.352 89.5339 71.928 89.5339 71.392C89.5339 70.856 89.7179 70.44 90.0859 70.144C90.4539 69.848 90.9899 69.64 91.6939 69.52L93.8299 69.16V69.952L91.8379 70.264C91.3899 70.336 91.0499 70.456 90.8179 70.624C90.5859 70.792 90.4699 71.036 90.4699 71.356C90.4699 71.668 90.5739 71.904 90.7819 72.064C90.9979 72.224 91.3139 72.304 91.7299 72.304C92.2659 72.304 92.7019 72.184 93.0379 71.944C93.3819 71.696 93.5539 71.376 93.5539 70.984L93.7099 71.836C93.5819 72.244 93.3299 72.56 92.9539 72.784C92.5859 73.008 92.1339 73.12 91.5979 73.12ZM41.1461 85.12C40.5461 85.12 39.9941 85.012 39.4901 84.796C38.9941 84.572 38.5621 84.26 38.1941 83.86C37.8261 83.452 37.5381 82.976 37.3301 82.432C37.1301 81.888 37.0301 81.292 37.0301 80.644C37.0301 79.788 37.2061 79.028 37.5581 78.364C37.9101 77.7 38.3941 77.18 39.0101 76.804C39.6341 76.428 40.3421 76.24 41.1341 76.24C41.9421 76.24 42.6541 76.428 43.2701 76.804C43.8941 77.18 44.3821 77.7 44.7341 78.364C45.0861 79.028 45.2621 79.792 45.2621 80.656C45.2621 81.304 45.1581 81.9 44.9501 82.444C44.7501 82.988 44.4661 83.46 44.0981 83.86C43.7301 84.26 43.2941 84.572 42.7901 84.796C42.2861 85.012 41.7381 85.12 41.1461 85.12ZM41.1341 84.232C41.7501 84.232 42.2901 84.08 42.7541 83.776C43.2261 83.464 43.5941 83.036 43.8581 82.492C44.1221 81.948 44.2541 81.328 44.2541 80.632C44.2541 79.944 44.1221 79.336 43.8581 78.808C43.6021 78.28 43.2381 77.868 42.7661 77.572C42.3021 77.276 41.7581 77.128 41.1341 77.128C40.5101 77.128 39.9661 77.276 39.5021 77.572C39.0381 77.868 38.6781 78.28 38.4221 78.808C38.1661 79.328 38.0381 79.936 38.0381 80.632C38.0381 81.336 38.1661 81.96 38.4221 82.504C38.6861 83.04 39.0501 83.464 39.5141 83.776C39.9781 84.08 40.5181 84.232 41.1341 84.232ZM46.5837 85V78.88H47.4837V80.32H47.5437V85H46.5837ZM50.9637 85V80.992C50.9637 80.528 50.8477 80.18 50.6157 79.948C50.3837 79.716 50.0397 79.6 49.5837 79.6C49.1837 79.6 48.8277 79.688 48.5157 79.864C48.2117 80.04 47.9717 80.284 47.7957 80.596C47.6277 80.908 47.5437 81.272 47.5437 81.688L47.3877 80.236C47.5957 79.78 47.9117 79.42 48.3357 79.156C48.7677 78.892 49.2557 78.76 49.7997 78.76C50.4397 78.76 50.9517 78.944 51.3357 79.312C51.7277 79.672 51.9237 80.148 51.9237 80.74V85H50.9637ZM53.5273 85V76.36H54.4873V85H53.5273ZM56.1701 85V78.88H57.1301V85H56.1701ZM56.0981 77.488V76.36H57.2021V77.488H56.0981ZM58.8129 85V78.88H59.7129V80.32H59.7729V85H58.8129ZM63.1929 85V80.992C63.1929 80.528 63.0769 80.18 62.8449 79.948C62.6129 79.716 62.2689 79.6 61.8129 79.6C61.4129 79.6 61.0569 79.688 60.7449 79.864C60.4409 80.04 60.2009 80.284 60.0249 80.596C59.8569 80.908 59.7729 81.272 59.7729 81.688L59.6169 80.236C59.8249 79.78 60.1409 79.42 60.5649 79.156C60.9969 78.892 61.4849 78.76 62.0289 78.76C62.6689 78.76 63.1809 78.944 63.5649 79.312C63.9569 79.672 64.1529 80.148 64.1529 80.74V85H63.1929ZM68.2645 85.12C67.6805 85.12 67.1645 84.984 66.7165 84.712C66.2685 84.432 65.9165 84.052 65.6605 83.572C65.4045 83.092 65.2765 82.54 65.2765 81.916C65.2765 81.292 65.4005 80.744 65.6485 80.272C65.9045 79.792 66.2605 79.42 66.7165 79.156C67.1725 78.892 67.6965 78.76 68.2885 78.76C68.8565 78.76 69.3485 78.884 69.7645 79.132C70.1885 79.38 70.5125 79.728 70.7365 80.176C70.9685 80.624 71.0845 81.152 71.0845 81.76C71.0845 81.84 71.0805 81.916 71.0725 81.988C71.0725 82.06 71.0645 82.14 71.0485 82.228H65.9965V81.424H70.4605L70.1485 81.868C70.1485 81.132 69.9845 80.568 69.6565 80.176C69.3365 79.776 68.8805 79.576 68.2885 79.576C67.6805 79.576 67.1885 79.788 66.8125 80.212C66.4445 80.628 66.2605 81.192 66.2605 81.904C66.2605 82.632 66.4445 83.216 66.8125 83.656C67.1885 84.088 67.6885 84.304 68.3125 84.304C68.7045 84.304 69.0485 84.22 69.3445 84.052C69.6405 83.876 69.8565 83.628 69.9925 83.308H70.9045C70.7045 83.868 70.3685 84.312 69.8965 84.64C69.4325 84.96 68.8885 85.12 68.2645 85.12Z" fill="#00328E"/>
</svg>
